<?xml version="1.0" encoding="us-ascii" standalone="no"?><svg xmlns="http://www.w3.org/2000/svg" xmlns:xlink="http://www.w3.org/1999/xlink" contentStyleType="text/css" height="396px" preserveAspectRatio="none" style="width:475px;height:396px;background:#FFFFFF;" version="1.1" viewBox="0 0 475 396" width="475px" zoomAndPan="magnify"><defs/><g><rect fill="#F1F1F1" height="122.9297" rx="5" ry="5" style="stroke:#F1F1F1;stroke-width:1.5;" width="218" x="10" y="44.7441"/><text fill="#000000" font-family="sans-serif" font-size="14" font-weight="bold" lengthAdjust="spacing" textLength="18" x="15" y="60.2793">pk</text><text fill="#000000" font-family="sans-serif" font-size="14" lengthAdjust="spacing" textLength="59" x="43" y="60.2793">abc-123</text><line style="stroke:#000000;stroke-width:1.0;" x1="38" x2="38" y1="44.7441" y2="65.2324"/><line style="stroke:#000000;stroke-width:1.0;" x1="10" x2="228" y1="65.2324" y2="65.2324"/><text fill="#000000" font-family="sans-serif" font-size="14" font-weight="bold" lengthAdjust="spacing" textLength="17" x="15" y="80.7676">sk</text><text fill="#000000" font-family="sans-serif" font-size="14" lengthAdjust="spacing" textLength="62" x="43" y="80.7676">rnd_start</text><line style="stroke:#000000;stroke-width:1.0;" x1="38" x2="38" y1="65.2324" y2="85.7207"/><line style="stroke:#000000;stroke-width:1.0;" x1="10" x2="228" y1="85.7207" y2="85.7207"/><text fill="#000000" font-family="sans-serif" font-size="14" font-weight="bold" lengthAdjust="spacing" textLength="9" x="15" y="101.2559">p</text><text fill="#000000" font-family="sans-serif" font-size="14" lengthAdjust="spacing" textLength="12" x="43" y="101.2559">&#160;&#160;&#160;</text><line style="stroke:#000000;stroke-width:1.0;" x1="38" x2="38" y1="85.7207" y2="106.209"/><line style="stroke:#000000;stroke-width:1.0;" x1="10" x2="228" y1="106.209" y2="106.209"/><text fill="#000000" font-family="sans-serif" font-size="14" font-weight="bold" lengthAdjust="spacing" textLength="7" x="15" y="121.7441">c</text><text fill="#000000" font-family="sans-serif" font-size="14" lengthAdjust="spacing" textLength="90" x="43" y="121.7441">Pebble Beach</text><line style="stroke:#000000;stroke-width:1.0;" x1="38" x2="38" y1="106.209" y2="126.6973"/><line style="stroke:#000000;stroke-width:1.0;" x1="10" x2="228" y1="126.6973" y2="126.6973"/><text fill="#000000" font-family="sans-serif" font-size="14" font-weight="bold" lengthAdjust="spacing" textLength="8" x="15" y="142.2324">s</text><text fill="#000000" font-family="sans-serif" font-size="14" lengthAdjust="spacing" textLength="180" x="43" y="142.2324">2023-08-20T08:00:00JST</text><line style="stroke:#000000;stroke-width:1.0;" x1="38" x2="38" y1="126.6973" y2="147.1855"/><line style="stroke:#000000;stroke-width:1.0;" x1="10" x2="228" y1="147.1855" y2="147.1855"/><text fill="#000000" font-family="sans-serif" font-size="14" font-weight="bold" lengthAdjust="spacing" textLength="9" x="15" y="162.7207">h</text><text fill="#000000" font-family="sans-serif" font-size="14" lengthAdjust="spacing" textLength="12" x="43" y="162.7207">&#160;&#160;&#160;</text><line style="stroke:#000000;stroke-width:1.0;" x1="38" x2="38" y1="147.1855" y2="167.6738"/><rect fill="none" height="122.9297" rx="5" ry="5" style="stroke:#000000;stroke-width:1.5;" width="218" x="10" y="44.7441"/><rect fill="#F1F1F1" height="40.9766" rx="5" ry="5" style="stroke:#F1F1F1;stroke-width:1.5;" width="22" x="265" y="27.7441"/><text fill="#000000" font-family="sans-serif" font-size="14" lengthAdjust="spacing" textLength="12" x="270" y="43.2793">&#160;&#160;&#160;</text><line style="stroke:#000000;stroke-width:1.0;" x1="265" x2="287" y1="48.2324" y2="48.2324"/><text fill="#000000" font-family="sans-serif" font-size="14" lengthAdjust="spacing" textLength="12" x="270" y="63.7676">&#160;&#160;&#160;</text><rect fill="none" height="40.9766" rx="5" ry="5" style="stroke:#000000;stroke-width:1.5;" width="22" x="265" y="27.7441"/><rect fill="#F1F1F1" height="20.4883" rx="5" ry="5" style="stroke:#F1F1F1;stroke-width:1.5;" width="116" x="335.5" y="10"/><text fill="#000000" font-family="sans-serif" font-size="14" font-weight="bold" lengthAdjust="spacing" textLength="9" x="340.5" y="25.5352">n</text><text fill="#000000" font-family="sans-serif" font-size="14" lengthAdjust="spacing" textLength="87" x="359.5" y="25.5352">Evertras (#0)</text><line style="stroke:#000000;stroke-width:1.0;" x1="354.5" x2="354.5" y1="10" y2="30.4883"/><rect fill="none" height="20.4883" rx="5" ry="5" style="stroke:#000000;stroke-width:1.5;" width="116" x="335.5" y="10"/><rect fill="#F1F1F1" height="20.4883" rx="5" ry="5" style="stroke:#F1F1F1;stroke-width:1.5;" width="139" x="324" y="48"/><text fill="#000000" font-family="sans-serif" font-size="14" font-weight="bold" lengthAdjust="spacing" textLength="9" x="329" y="63.5352">n</text><text fill="#000000" font-family="sans-serif" font-size="14" lengthAdjust="spacing" textLength="110" x="348" y="63.5352">Nakabonne (#1)</text><line style="stroke:#000000;stroke-width:1.0;" x1="343" x2="343" y1="48" y2="68.4883"/><rect fill="none" height="20.4883" rx="5" ry="5" style="stroke:#000000;stroke-width:1.5;" width="139" x="324" y="48"/><rect fill="#F1F1F1" height="81.9531" rx="5" ry="5" style="stroke:#F1F1F1;stroke-width:1.5;" width="22" x="265" y="165.2441"/><text fill="#000000" font-family="sans-serif" font-size="14" lengthAdjust="spacing" textLength="12" x="270" y="180.7793">&#160;&#160;&#160;</text><line style="stroke:#000000;stroke-width:1.0;" x1="265" x2="287" y1="185.7324" y2="185.7324"/><text fill="#000000" font-family="sans-serif" font-size="14" lengthAdjust="spacing" textLength="12" x="270" y="201.2676">&#160;&#160;&#160;</text><line style="stroke:#000000;stroke-width:1.0;" x1="265" x2="287" y1="206.2207" y2="206.2207"/><text fill="#000000" font-family="sans-serif" font-size="14" lengthAdjust="spacing" textLength="12" x="270" y="221.7559">&#160;&#160;&#160;</text><line style="stroke:#000000;stroke-width:1.0;" x1="265" x2="287" y1="226.709" y2="226.709"/><text fill="#000000" font-family="sans-serif" font-size="14" lengthAdjust="spacing" textLength="12" x="270" y="242.2441">&#160;&#160;&#160;</text><rect fill="none" height="81.9531" rx="5" ry="5" style="stroke:#000000;stroke-width:1.5;" width="22" x="265" y="165.2441"/><rect fill="#F1F1F1" height="61.4648" rx="5" ry="5" style="stroke:#F1F1F1;stroke-width:1.5;" width="64" x="361.5" y="86.5117"/><text fill="#000000" font-family="sans-serif" font-size="14" font-weight="bold" lengthAdjust="spacing" textLength="17" x="366.5" y="102.0469">pa</text><text fill="#000000" font-family="sans-serif" font-size="14" lengthAdjust="spacing" textLength="9" x="393.5" y="102.0469">3</text><line style="stroke:#000000;stroke-width:1.0;" x1="388.5" x2="388.5" y1="86.5117" y2="107"/><line style="stroke:#000000;stroke-width:1.0;" x1="361.5" x2="425.5" y1="107" y2="107"/><text fill="#000000" font-family="sans-serif" font-size="14" font-weight="bold" lengthAdjust="spacing" textLength="13" x="366.5" y="122.5352">si</text><text fill="#000000" font-family="sans-serif" font-size="14" lengthAdjust="spacing" textLength="9" x="393.5" y="122.5352">1</text><line style="stroke:#000000;stroke-width:1.0;" x1="388.5" x2="388.5" y1="107" y2="127.4883"/><line style="stroke:#000000;stroke-width:1.0;" x1="361.5" x2="425.5" y1="127.4883" y2="127.4883"/><text fill="#000000" font-family="sans-serif" font-size="14" font-weight="bold" lengthAdjust="spacing" textLength="9" x="366.5" y="143.0234">d</text><text fill="#000000" font-family="sans-serif" font-size="14" lengthAdjust="spacing" textLength="27" x="393.5" y="143.0234">183</text><line style="stroke:#000000;stroke-width:1.0;" x1="388.5" x2="388.5" y1="127.4883" y2="147.9766"/><rect fill="none" height="61.4648" rx="5" ry="5" style="stroke:#000000;stroke-width:1.5;" width="64" x="361.5" y="86.5117"/><rect fill="#F1F1F1" height="61.4648" rx="5" ry="5" style="stroke:#F1F1F1;stroke-width:1.5;" width="64" x="361.5" y="165.5117"/><text fill="#000000" font-family="sans-serif" font-size="14" font-weight="bold" lengthAdjust="spacing" textLength="17" x="366.5" y="181.0469">pa</text><text fill="#000000" font-family="sans-serif" font-size="14" lengthAdjust="spacing" textLength="9" x="393.5" y="181.0469">4</text><line style="stroke:#000000;stroke-width:1.0;" x1="388.5" x2="388.5" y1="165.5117" y2="186"/><line style="stroke:#000000;stroke-width:1.0;" x1="361.5" x2="425.5" y1="186" y2="186"/><text fill="#000000" font-family="sans-serif" font-size="14" font-weight="bold" lengthAdjust="spacing" textLength="13" x="366.5" y="201.5352">si</text><text fill="#000000" font-family="sans-serif" font-size="14" lengthAdjust="spacing" textLength="9" x="393.5" y="201.5352">3</text><line style="stroke:#000000;stroke-width:1.0;" x1="388.5" x2="388.5" y1="186" y2="206.4883"/><line style="stroke:#000000;stroke-width:1.0;" x1="361.5" x2="425.5" y1="206.4883" y2="206.4883"/><text fill="#000000" font-family="sans-serif" font-size="14" font-weight="bold" lengthAdjust="spacing" textLength="9" x="366.5" y="222.0234">d</text><text fill="#000000" font-family="sans-serif" font-size="14" lengthAdjust="spacing" textLength="27" x="393.5" y="222.0234">411</text><line style="stroke:#000000;stroke-width:1.0;" x1="388.5" x2="388.5" y1="206.4883" y2="226.9766"/><rect fill="none" height="61.4648" rx="5" ry="5" style="stroke:#000000;stroke-width:1.5;" width="64" x="361.5" y="165.5117"/><rect fill="#F1F1F1" height="61.4648" rx="5" ry="5" style="stroke:#F1F1F1;stroke-width:1.5;" width="64" x="361.5" y="244.5117"/><text fill="#000000" font-family="sans-serif" font-size="14" font-weight="bold" lengthAdjust="spacing" textLength="17" x="366.5" y="260.0469">pa</text><text fill="#000000" font-family="sans-serif" font-size="14" lengthAdjust="spacing" textLength="9" x="393.5" y="260.0469">4</text><line style="stroke:#000000;stroke-width:1.0;" x1="388.5" x2="388.5" y1="244.5117" y2="265"/><line style="stroke:#000000;stroke-width:1.0;" x1="361.5" x2="425.5" y1="265" y2="265"/><text fill="#000000" font-family="sans-serif" font-size="14" font-weight="bold" lengthAdjust="spacing" textLength="13" x="366.5" y="280.5352">si</text><text fill="#000000" font-family="sans-serif" font-size="14" lengthAdjust="spacing" textLength="18" x="393.5" y="280.5352">17</text><line style="stroke:#000000;stroke-width:1.0;" x1="388.5" x2="388.5" y1="265" y2="285.4883"/><line style="stroke:#000000;stroke-width:1.0;" x1="361.5" x2="425.5" y1="285.4883" y2="285.4883"/><text fill="#000000" font-family="sans-serif" font-size="14" font-weight="bold" lengthAdjust="spacing" textLength="9" x="366.5" y="301.0234">d</text><text fill="#000000" font-family="sans-serif" font-size="14" lengthAdjust="spacing" textLength="27" x="393.5" y="301.0234">398</text><line style="stroke:#000000;stroke-width:1.0;" x1="388.5" x2="388.5" y1="285.4883" y2="305.9766"/><rect fill="none" height="61.4648" rx="5" ry="5" style="stroke:#000000;stroke-width:1.5;" width="64" x="361.5" y="244.5117"/><rect fill="#F1F1F1" height="61.4648" rx="5" ry="5" style="stroke:#F1F1F1;stroke-width:1.5;" width="64" x="361.5" y="323.5117"/><text fill="#000000" font-family="sans-serif" font-size="14" font-weight="bold" lengthAdjust="spacing" textLength="17" x="366.5" y="339.0469">pa</text><text fill="#000000" font-family="sans-serif" font-size="14" lengthAdjust="spacing" textLength="9" x="393.5" y="339.0469">5</text><line style="stroke:#000000;stroke-width:1.0;" x1="388.5" x2="388.5" y1="323.5117" y2="344"/><line style="stroke:#000000;stroke-width:1.0;" x1="361.5" x2="425.5" y1="344" y2="344"/><text fill="#000000" font-family="sans-serif" font-size="14" font-weight="bold" lengthAdjust="spacing" textLength="13" x="366.5" y="359.5352">si</text><text fill="#000000" font-family="sans-serif" font-size="14" lengthAdjust="spacing" textLength="9" x="393.5" y="359.5352">5</text><line style="stroke:#000000;stroke-width:1.0;" x1="388.5" x2="388.5" y1="344" y2="364.4883"/><line style="stroke:#000000;stroke-width:1.0;" x1="361.5" x2="425.5" y1="364.4883" y2="364.4883"/><text fill="#000000" font-family="sans-serif" font-size="14" font-weight="bold" lengthAdjust="spacing" textLength="9" x="366.5" y="380.0234">d</text><text fill="#000000" font-family="sans-serif" font-size="14" lengthAdjust="spacing" textLength="27" x="393.5" y="380.0234">586</text><line style="stroke:#000000;stroke-width:1.0;" x1="388.5" x2="388.5" y1="364.4883" y2="384.9766"/><rect fill="none" height="61.4648" rx="5" ry="5" style="stroke:#000000;stroke-width:1.5;" width="64" x="361.5" y="323.5117"/><path d="M275,38.2441 L288,38.2441 C306.7725,38.2441 327.165,35.4145 344.9418,31.9991 " fill="none" style="stroke:#000000;stroke-width:1.0;stroke-dasharray:3.0,3.0;"/><path d="M345.5391,34.9776 L347.1757,31.5512 L344.3446,29.0207 L352.388,30.5061 L345.5391,34.9776 " fill="#000000" style="stroke:#000000;stroke-width:1.0;"/><ellipse cx="275" cy="38.2441" fill="#000000" rx="3" ry="3" style="stroke:#000000;stroke-width:1.0;"/><path d="M275,58.2441 L288,58.2441 C297.2776,58.2441 307.0164,58.2441 316.6663,58.2441 " fill="none" style="stroke:#000000;stroke-width:1.0;stroke-dasharray:3.0,3.0;"/><path d="M316.6663,61.3279 L318.9791,58.2441 L316.6663,55.1604 L324.3757,58.2441 L316.6663,61.3279 " fill="#000000" style="stroke:#000000;stroke-width:1.0;"/><ellipse cx="275" cy="58.2441" fill="#000000" rx="3" ry="3" style="stroke:#000000;stroke-width:1.0;"/><path d="M216,96.2441 L229,96.2441 C242.5785,96.2441 253.4601,86.2127 261.2728,75.3216 " fill="none" style="stroke:#000000;stroke-width:1.0;stroke-dasharray:3.0,3.0;"/><path d="M263.8498,77.0186 L262.5455,73.3888 L258.6958,73.6245 L265.5154,68.879 L263.8498,77.0186 " fill="#000000" style="stroke:#000000;stroke-width:1.0;"/><ellipse cx="216" cy="96.2441" fill="#000000" rx="3" ry="3" style="stroke:#000000;stroke-width:1.0;"/><path d="M275,175.2441 L288,175.2441 C289.9521,175.2441 325.6545,155.3376 354.8924,138.8489 " fill="none" style="stroke:#000000;stroke-width:1.0;stroke-dasharray:3.0,3.0;"/><path d="M356.4475,141.6035 L356.9583,137.6826 L353.3373,136.0943 L361.7789,134.9612 L356.4475,141.6035 " fill="#000000" style="stroke:#000000;stroke-width:1.0;"/><ellipse cx="275" cy="175.2441" fill="#000000" rx="3" ry="3" style="stroke:#000000;stroke-width:1.0;"/><path d="M275,196.2441 L288,196.2441 C309.8864,196.2441 334.3389,196.2441 354.1366,196.2441 " fill="none" style="stroke:#000000;stroke-width:1.0;stroke-dasharray:3.0,3.0;"/><path d="M354.1366,199.2926 L356.4229,196.2441 L354.1366,193.1957 L361.7576,196.2441 L354.1366,199.2926 " fill="#000000" style="stroke:#000000;stroke-width:1.0;"/><ellipse cx="275" cy="196.2441" fill="#000000" rx="3" ry="3" style="stroke:#000000;stroke-width:1.0;"/><path d="M275,216.2441 L288,216.2441 C288.4966,216.2441 325.422,237.045 355.3408,253.9451 " fill="none" style="stroke:#000000;stroke-width:1.0;stroke-dasharray:3.0,3.0;"/><path d="M353.838,256.6048 L357.3356,255.0721 L356.8435,251.2854 L361.9901,257.7019 L353.838,256.6048 " fill="#000000" style="stroke:#000000;stroke-width:1.0;"/><ellipse cx="275" cy="216.2441" fill="#000000" rx="3" ry="3" style="stroke:#000000;stroke-width:1.0;"/><path d="M275,237.2441 L288,237.2441 C326.1809,237.2441 298.132,287.1617 324,315.2441 C332.6469,324.6312 344.0854,332.3356 355.1577,338.3445 " fill="none" style="stroke:#000000;stroke-width:1.0;stroke-dasharray:3.0,3.0;"/><path d="M353.7488,341.0719 L357.2032,339.4011 L356.5665,335.6171 L361.9762,341.8666 L353.7488,341.0719 " fill="#000000" style="stroke:#000000;stroke-width:1.0;"/><ellipse cx="275" cy="237.2441" fill="#000000" rx="3" ry="3" style="stroke:#000000;stroke-width:1.0;"/><path d="M216,157.2441 L229,157.2441 C242.6271,157.2441 253.4635,167.3388 261.2352,178.3645 " fill="none" style="stroke:#000000;stroke-width:1.0;stroke-dasharray:3.0,3.0;"/><path d="M258.6231,180.0524 L262.5011,180.3235 L263.8472,176.6767 L265.4548,184.8946 L258.6231,180.0524 " fill="#000000" style="stroke:#000000;stroke-width:1.0;"/><ellipse cx="216" cy="157.2441" fill="#000000" rx="3" ry="3" style="stroke:#000000;stroke-width:1.0;"/><!--SRC=[ROynRy8m58JtzokUr8KCgUmuWTGJej1AARHH2QoLaxXW4Pp8Tf3uztL1IPTA7axtFP_kvjO9uwxYt01q9uwYh48QCR1U6rr_tJ1q7113r1nN5scS4HOd3oGOp7Tn4cMhjVGk3Q3YcCkoR2GkfAYEO3b6968XISE852JbXFYNRGiutdCxmP5vXMWLHtfJjHSf6t4yOZRWcD9_C9qDd3sb8qz6dWmuIQS0Swdh-_Yy4ThjDclq0wrgDTB7tzAFb4oAOuzPto1bw9idCISpzErlemAOlEPhj6rlAecriiweidS-881CN0H-zjgfi-JuqKcTBTy60rVweaohpr8xoFQRluDf72wKmwqqlWhkDx2Ktw9ldFzHjRNI1uwxuYLCOItqeHS7doqrFBS-rrmvPlaF]--></g></svg>