<?xml version="1.0" encoding="us-ascii" standalone="no"?><svg xmlns="http://www.w3.org/2000/svg" xmlns:xlink="http://www.w3.org/1999/xlink" contentStyleType="text/css" height="317px" preserveAspectRatio="none" style="width:418px;height:317px;background:#FFFFFF;" version="1.1" viewBox="0 0 418 317" width="418px" zoomAndPan="magnify"><defs/><g><!--cluster Users--><g id="cluster_Users"><path d="M260.5176,167.1279 L301.5176,167.1279 A3.75,3.75 0 0 1 304.0176,169.6279 L311.0176,189.6161 L408.5176,189.6161 A2.5,2.5 0 0 1 411.0176,192.1161 L411.0176,292.1179 A2.5,2.5 0 0 1 408.5176,294.6179 L260.5176,294.6179 A2.5,2.5 0 0 1 258.0176,292.1179 L258.0176,169.6279 A2.5,2.5 0 0 1 260.5176,167.1279 " fill="none" style="stroke:#000000;stroke-width:1.5;"/><line style="stroke:#000000;stroke-width:1.5;" x1="258.0176" x2="311.0176" y1="189.6161" y2="189.6161"/><text fill="#000000" font-family="sans-serif" font-size="14" font-weight="bold" lengthAdjust="spacing" textLength="40" x="262.0176" y="182.663">Users</text></g><!--cluster AWS--><g id="cluster_AWS"><path d="M29.7485,23.5587 C35.3789,14.6838 42.0841,14.0484 49.0053,22.0892 C53.791,12.8618 61.3578,10.6052 68.9871,18.8341 C74.241,10.4901 81.9529,10.0886 88.1051,17.7619 C93.2132,9.1126 100.7304,8.0084 106.9653,16.5238 C113.014,7.7054 118.9119,6 126.1679,15.24 C132.866,7.3153 139.1125,7.7125 144.3838,16.7703 C150.0902,7.5788 157.3986,8.496 163.6471,16.1504 C170.2155,8.7349 178.8357,10.9248 181.9939,19.9548 C188.6031,9.1586 197.0023,10.828 202.3258,21.1903 C213.8223,10.6925 220.7482,15.2538 226.0176,27.6379 C228.6223,27.6193 229.415,28.9564 228.1008,31.2181 C237.3951,37.0471 236.8224,42.4013 228.0454,48.1712 C237.8517,54.3646 239.2958,60.7741 228.8946,67.8399 C239.1203,72.723 239.0925,79.5653 230.2406,85.8723 C237.9299,91.1647 237.5244,100.4911 229.4646,105.1495 C239.098,110.6476 238.9709,117.5989 229.3514,122.9748 C238.0346,128.7987 239.118,136.9203 228.5458,141.9257 C237.9405,145.2205 238.6789,153.5119 230.8472,159.1132 C240.5642,166.5948 239.5345,175.4024 227.5138,179.2933 C236.5508,182.7053 237.8727,188.6842 230.1193,194.8994 C239.2037,202.4566 237.8801,211.27 227.0028,215.8592 C236.9301,220.8384 235.4166,227.2664 228.5382,233.6925 C236.255,239.223 236.1016,245.8328 228.8739,251.6427 C236.5633,257.6378 235.7755,266.2204 226.923,270.5045 C234.4913,280.1191 232.7322,291.4477 219.0176,293.8579 C220.0219,292.6496 220.8109,292.8723 221.4762,294.188 C216.91,304.6128 210.119,304.7654 202.313,297.7474 C194.9747,307.6882 187.7176,306.3367 181.1241,296.9316 C176.3143,306.6352 166.7395,307.1302 161.5032,297.3613 C156.9921,306.6683 151.0464,305.2984 145.2908,298.6238 C139.0667,310.6256 130.5701,310.8083 123.4068,299.5058 C117.4197,306.4277 111.9852,307.5967 106.3807,299.0837 C100.0177,308.7379 92.7654,306.5641 87.1251,298.3068 C80.3945,307.628 74.4257,306.8778 67.314,298.7392 C61.8151,308.1214 53.3516,308.6446 48.4213,298.1975 C34.0393,306.4918 24.8899,302.3837 20.0176,286.8579 C21.6946,287.5375 21.8257,289.1207 20.331,290.1063 C11.9039,284.9143 12.2783,276.1385 21.3405,271.9172 C9.6647,266.6063 8.8185,259.9003 18.6556,251.7284 C10.7837,247.8131 10.2608,239.4524 17.8004,234.7604 C8.426,228.6378 10.929,220.5286 19.1925,215.6938 C9.5348,210.4823 10.8663,201.6318 18.9221,196.175 C7.9683,193.2917 7.7406,184.3175 14.6526,177.3765 C7.5369,171.6685 6.65,163.9605 15.8999,159.3872 C6.6008,154.4386 6.3722,147.7947 15.1658,142.0787 C6,133.6385 8.6014,126.2532 18.5236,120.8291 C11.1941,114.7294 10.6974,108.102 19.3269,102.7098 C9.2495,98.3996 9.7307,91.2266 17.5123,85.0784 C9.0311,77.5764 9.4113,71.4772 18.9184,65.2507 C9.7096,59.9569 10.8892,51.336 19.1938,46.2966 C9.9845,34.2648 11.3933,25.0974 27.0176,20.6379 C29.1182,20.1097 30.5564,21.3676 29.7485,23.5587 " fill="none" style="stroke:#181818;stroke-width:1.0;"/><text fill="#000000" font-family="sans-serif" font-size="14" font-weight="bold" lengthAdjust="spacing" textLength="31" x="107.5176" y="39.173">AWS</text></g><!--cluster Lambda--><g id="cluster_Lambda"><path d="M38.5176,55.6379 L95.5176,55.6379 A3.75,3.75 0 0 1 98.0176,58.1379 L105.0176,78.1261 L207.5176,78.1261 A2.5,2.5 0 0 1 210.0176,80.6261 L210.0176,140.6279 A2.5,2.5 0 0 1 207.5176,143.1279 L38.5176,143.1279 A2.5,2.5 0 0 1 36.0176,140.6279 L36.0176,58.1379 A2.5,2.5 0 0 1 38.5176,55.6379 " fill="none" style="stroke:#000000;stroke-width:1.5;"/><line style="stroke:#000000;stroke-width:1.5;" x1="36.0176" x2="105.0176" y1="78.1261" y2="78.1261"/><text fill="#000000" font-family="sans-serif" font-size="14" font-weight="bold" lengthAdjust="spacing" textLength="56" x="40.0176" y="71.173">Lambda</text></g><!--cluster DynamoDB--><g id="cluster_DynamoDB"><path d="M77.5176,183.8779 L157.5176,183.8779 A3.75,3.75 0 0 1 160.0176,186.3779 L167.0176,206.3661 L168.5176,206.3661 A2.5,2.5 0 0 1 171.0176,208.8661 L171.0176,275.3579 A2.5,2.5 0 0 1 168.5176,277.8579 L77.5176,277.8579 A2.5,2.5 0 0 1 75.0176,275.3579 L75.0176,186.3779 A2.5,2.5 0 0 1 77.5176,183.8779 " fill="none" style="stroke:#000000;stroke-width:1.5;"/><line style="stroke:#000000;stroke-width:1.5;" x1="75.0176" x2="167.0176" y1="206.3661" y2="206.3661"/><text fill="#000000" font-family="sans-serif" font-size="14" font-weight="bold" lengthAdjust="spacing" textLength="79" x="79.0176" y="199.413">DynamoDB</text></g><!--entity player--><g id="elem_player"><ellipse cx="375.0176" cy="210.6279" fill="#F1F1F1" rx="8" ry="8" style="stroke:#181818;stroke-width:0.5;"/><path d="M375.0176,218.6279 L375.0176,245.6279 M362.0176,226.6279 L388.0176,226.6279 M375.0176,245.6279 L362.0176,260.6279 M375.0176,245.6279 L388.0176,260.6279 " fill="none" style="stroke:#181818;stroke-width:0.5;"/><text fill="#000000" font-family="sans-serif" font-size="14" lengthAdjust="spacing" textLength="41" x="354.5176" y="275.663">Player</text></g><!--entity viewer--><g id="elem_viewer"><ellipse cx="297.0176" cy="210.6279" fill="#F1F1F1" rx="8" ry="8" style="stroke:#181818;stroke-width:0.5;"/><path d="M297.0176,218.6279 L297.0176,245.6279 M284.0176,226.6279 L310.0176,226.6279 M297.0176,245.6279 L284.0176,260.6279 M297.0176,245.6279 L310.0176,260.6279 " fill="none" style="stroke:#181818;stroke-width:0.5;"/><text fill="#000000" font-family="sans-serif" font-size="14" lengthAdjust="spacing" textLength="46" x="274.0176" y="275.663">Viewer</text></g><!--entity entry--><g id="elem_entry"><rect fill="#F1F1F1" height="36.4883" rx="2.5" ry="2.5" style="stroke:#181818;stroke-width:0.5;" width="55" x="138.5176" y="90.6379"/><text fill="#000000" font-family="sans-serif" font-size="14" lengthAdjust="spacing" textLength="35" x="148.5176" y="114.173">Entry</text></g><!--entity view--><g id="elem_view"><rect fill="#F1F1F1" height="36.4883" rx="2.5" ry="2.5" style="stroke:#181818;stroke-width:0.5;" width="52" x="52.0176" y="90.6379"/><text fill="#000000" font-family="sans-serif" font-size="14" lengthAdjust="spacing" textLength="32" x="62.0176" y="114.173">View</text></g><!--entity scoreEvents--><g id="elem_scoreEvents"><path d="M96.0176,218.8779 L150.0176,218.8779 C155.0176,218.8779 155.0176,240.3661 155.0176,240.3661 C155.0176,240.3661 155.0176,261.8544 150.0176,261.8544 L96.0176,261.8544 C91.0176,261.8544 91.0176,240.3661 91.0176,240.3661 C91.0176,240.3661 91.0176,218.8779 96.0176,218.8779 " fill="#F1F1F1" style="stroke:#181818;stroke-width:0.5;"/><path d="M150.0176,218.8779 C145.0176,218.8779 145.0176,240.3661 145.0176,240.3661 C145.0176,261.8544 150.0176,261.8544 150.0176,261.8544 " fill="none" style="stroke:#181818;stroke-width:0.5;"/><text fill="#000000" font-family="sans-serif" font-size="14" lengthAdjust="spacing" textLength="38" x="96.0176" y="237.413">Score</text><text fill="#000000" font-family="sans-serif" font-size="14" lengthAdjust="spacing" textLength="44" x="96.0176" y="253.9013">Events</text></g><!--link entry to scoreEvents--><g id="link_entry_scoreEvents"><path d="M160.1276,127.6179 C152.8176,149.6379 140.2776,187.4079 131.8176,212.8679 " fill="none" id="entry-to-scoreEvents" style="stroke:#181818;stroke-width:1.0;"/><polygon fill="#181818" points="129.9776,217.4279,136.6052,210.1426,131.5502,212.6816,129.0112,207.6265,129.9776,217.4279" style="stroke:#181818;stroke-width:1.0;"/></g><!--link scoreEvents to view--><g id="link_scoreEvents_view"><path d="M115.7376,218.4279 C107.6276,195.0779 94.5376,157.4279 86.1176,133.1779 " fill="none" id="scoreEvents-to-view" style="stroke:#181818;stroke-width:1.0;"/><polygon fill="#181818" points="84.1776,128.6179,83.3264,138.4299,85.8058,133.3453,90.8903,135.8248,84.1776,128.6179" style="stroke:#181818;stroke-width:1.0;"/></g><!--link player to entry--><g id="link_player_entry"><path d="M365.2976,201.9679 C359.6176,186.7679 350.9476,170.2079 338.0176,159.1279 C298.6276,125.3479 237.3976,114.6879 199.6076,111.3479 " fill="none" id="player-to-entry" style="stroke:#181818;stroke-width:1.0;"/><polygon fill="#181818" points="194.7476,110.8779,203.3989,115.5848,199.7316,111.2777,204.0387,107.6104,194.7476,110.8779" style="stroke:#181818;stroke-width:1.0;"/></g><!--link view to viewer--><g id="link_view_viewer"><path d="M91.7376,127.3279 C99.4276,135.8779 109.7176,145.5079 121.0176,151.1279 C141.1676,161.1479 149.9776,151.1379 171.0176,159.1279 C207.6176,173.0179 244.8576,198.4279 269.2576,216.9379 " fill="none" id="view-to-viewer" style="stroke:#181818;stroke-width:1.0;"/><polygon fill="#181818" points="272.9676,220.5379,268.2563,211.889,268.9987,217.4969,263.3907,218.2393,272.9676,220.5379" style="stroke:#181818;stroke-width:1.0;"/></g><!--SRC=[LO-z3i8m38JtF8NLlQ-016et1gGAM5XCwoAaDe7y54M8TyTnQ5MsyrtkSzoReICBHqVMmLi1OEkDXSE0aMrqy12r1ASxlN8mYL8VfTh1X0wsvqO0VIRkSRnsA0vtRwGzrDhRcAgKn2f8q1d9DYCNJ1KrZgRQ_K3FG86WQ5fZwQBhYTkkI5MNd3pF1Da2PRdv2pbOZHBBMgxaKu6T_C7aBm_ur2y0]--></g></svg>