<?xml version="1.0" encoding="us-ascii" standalone="no"?><svg xmlns="http://www.w3.org/2000/svg" xmlns:xlink="http://www.w3.org/1999/xlink" contentStyleType="text/css" height="116px" preserveAspectRatio="none" style="width:96px;height:116px;background:#FFFFFF;" version="1.1" viewBox="0 0 96 116" width="96px" zoomAndPan="magnify"><defs/><g><!--cluster AWS--><g id="cluster_AWS"><path d="M21.1507,13.621 C25.7452,7.174 32.4762,6.7865 36.315,14.4341 C38.9265,8.5759 45.4406,7.2577 49.4861,12.7735 C54.2647,7.4477 59.1187,6 62.9965,13.7073 C67.2818,8.2026 73.2375,7.9605 76.1959,15.0932 C82.0656,18.0743 83.8943,23.6624 77.6344,27.9957 C85.2663,30.6362 86.7546,36.1879 80.703,41.8575 C87.6539,44.0697 89.3211,50.2413 83.5193,55.1546 C89.4072,60.7068 88.7917,65.332 81.1879,68.5331 C86.653,73.9483 85.1187,78.3771 78.4743,81.1976 C84.9963,86.4401 85.2033,91.5082 77.2679,95.5343 C74.7193,103.8289 68.4776,105.1988 61.9611,100.0531 C60.6098,107.1313 53.9644,108.9558 48.8441,104.2477 C42.2496,109.5006 36.6948,105.1222 35.9185,98.1142 C31.1005,103.9197 23.9988,103.6366 21.8789,95.4139 C14.7713,91.4681 13.4613,87.0443 19.5395,80.9638 C12.7559,78.6953 10.2343,74.7888 15.2895,68.4875 C7.5934,65.8902 6,59.3095 12.4954,53.9792 C6.5294,49.0447 9.0819,43.8091 15.0855,41.3246 C9.8369,35.168 11.8165,30.0591 19.3432,27.9779 C12.2165,23.4022 13.1179,16.2881 21.1507,13.621 " fill="none" style="stroke:#181818;stroke-width:1.0;"/><text fill="#000000" font-family="sans-serif" font-size="14" font-weight="bold" lengthAdjust="spacing" textLength="31" x="32.6317" y="31.7382">AWS</text></g><!--entity DB--><g id="elem_DB"><path d="M29.1317,50.203 C29.1317,40.203 48.1317,40.203 48.1317,40.203 C48.1317,40.203 67.1317,40.203 67.1317,50.203 L67.1317,75.6913 C67.1317,85.6913 48.1317,85.6913 48.1317,85.6913 C48.1317,85.6913 29.1317,85.6913 29.1317,75.6913 L29.1317,50.203 " fill="#F1F1F1" style="stroke:#181818;stroke-width:0.5;"/><path d="M29.1317,50.203 C29.1317,60.203 48.1317,60.203 48.1317,60.203 C48.1317,60.203 67.1317,60.203 67.1317,50.203 " fill="none" style="stroke:#181818;stroke-width:0.5;"/><text fill="#000000" font-family="sans-serif" font-size="14" lengthAdjust="spacing" textLength="18" x="39.1317" y="77.7382">DB</text></g><!--SRC=[Iyx9BqrHS0mFLgZcKb18IIn9J4eiJbLmSUAgvG80]--></g></svg>