<?xml version="1.0" encoding="us-ascii" standalone="no"?><svg xmlns="http://www.w3.org/2000/svg" xmlns:xlink="http://www.w3.org/1999/xlink" contentStyleType="text/css" height="549px" preserveAspectRatio="none" style="width:644px;height:549px;background:#FFFFFF;" version="1.1" viewBox="0 0 644 549" width="644px" zoomAndPan="magnify"><defs/><g><!--cluster App--><g id="cluster_App"><path d="M111,6 L140,6 A3.75,3.75 0 0 1 142.5,8.5 L149.5,28.4883 L634.64,28.4883 A2.5,2.5 0 0 1 637.14,30.9883 L637.14,539.5 A2.5,2.5 0 0 1 634.64,542 L111,542 A2.5,2.5 0 0 1 108.5,539.5 L108.5,8.5 A2.5,2.5 0 0 1 111,6 " fill="none" style="stroke:#000000;stroke-width:1.5;"/><line style="stroke:#000000;stroke-width:1.5;" x1="108.5" x2="149.5" y1="28.4883" y2="28.4883"/><text fill="#000000" font-family="sans-serif" font-size="14" font-weight="bold" lengthAdjust="spacing" textLength="28" x="112.5" y="21.5352">App</text></g><g id="elem_UC1"><ellipse cx="235.2027" cy="188.9965" fill="#F1F1F1" rx="65.4827" ry="15.4965" style="stroke:#181818;stroke-width:0.5;"/><text fill="#000000" font-family="sans-serif" font-size="14" lengthAdjust="spacing" textLength="81" x="191.7027" y="193.0141">Start Round</text></g><g id="elem_UC1x1"><ellipse cx="544.5217" cy="188.9963" fill="#F1F1F1" rx="68.3317" ry="16.0663" style="stroke:#181818;stroke-width:0.5;"/><text fill="#000000" font-family="sans-serif" font-size="14" lengthAdjust="spacing" textLength="89" x="497.2777" y="192.9597">Enter players</text></g><g id="elem_UC2"><ellipse cx="235.2033" cy="254.0038" fill="#F1F1F1" rx="61.6033" ry="14.7838" style="stroke:#181818;stroke-width:0.5;"/><text fill="#000000" font-family="sans-serif" font-size="14" lengthAdjust="spacing" textLength="70" x="197.2033" y="258.0213">Add Score</text></g><g id="elem_UC3"><ellipse cx="235.198" cy="57.0036" fill="#F1F1F1" rx="67.968" ry="15.9936" style="stroke:#181818;stroke-width:0.5;"/><text fill="#000000" font-family="sans-serif" font-size="14" lengthAdjust="spacing" textLength="88" x="188.2352" y="61.0134">Modify Score</text></g><g id="elem_UC4"><ellipse cx="235.2025" cy="122.9965" fill="#F1F1F1" rx="63.4325" ry="15.0865" style="stroke:#181818;stroke-width:0.5;"/><text fill="#000000" font-family="sans-serif" font-size="14" lengthAdjust="spacing" textLength="75" x="194.7025" y="127.0141">End Round</text></g><g id="elem_UC5"><ellipse cx="235.2004" cy="323.9961" fill="#F1F1F1" rx="90.7804" ry="20.5561" style="stroke:#181818;stroke-width:0.5;"/><text fill="#000000" font-family="sans-serif" font-size="14" lengthAdjust="spacing" textLength="143" x="163.7004" y="327.2871">View Finished Round</text></g><g id="elem_UC6"><ellipse cx="235.1963" cy="401.9973" fill="#F1F1F1" rx="101.5363" ry="22.7073" style="stroke:#181818;stroke-width:0.5;"/><text fill="#000000" font-family="sans-serif" font-size="14" lengthAdjust="spacing" textLength="167" x="151.6963" y="405.2883">View In-progress Round</text></g><g id="elem_UC6x1"><ellipse cx="544.5216" cy="402.0043" fill="#F1F1F1" rx="76.6216" ry="17.7243" style="stroke:#181818;stroke-width:0.5;"/><text fill="#000000" font-family="sans-serif" font-size="14" lengthAdjust="spacing" textLength="110" x="489.5216" y="405.2953">See live updates</text></g><g id="elem_UC6x2"><ellipse cx="235.2005" cy="501.0001" fill="#F1F1F1" rx="110.7005" ry="24.5401" style="stroke:#181818;stroke-width:0.5;"/><text fill="#000000" font-family="sans-serif" font-size="14" lengthAdjust="spacing" textLength="187" x="141.7005" y="504.2911">React to In-progress round</text></g><!--entity p--><g id="elem_p"><ellipse cx="33" cy="166.76" fill="#F1F1F1" rx="16" ry="16" style="stroke:#181818;stroke-width:1.5;"/><path d="M33,186.76 C37,186.76 40,186.76 44,182.76 C52,182.76 60,190.76 60,198.76 L60,202.76 C60,206.76 56,210.76 52,210.76 L14,210.76 C10,210.76 6,206.76 6,202.76 L6,198.76 C6,190.76 14,182.76 22,182.76 C26,186.76 29,186.76 33,186.76 " fill="#F1F1F1" style="stroke:#181818;stroke-width:1.5;"/><text fill="#000000" font-family="sans-serif" font-size="14" lengthAdjust="spacing" textLength="41" x="12.5" y="225.7952">Player</text></g><!--entity v--><g id="elem_v"><ellipse cx="33" cy="338.76" fill="#F1F1F1" rx="16" ry="16" style="stroke:#181818;stroke-width:1.5;"/><path d="M33,358.76 C37,358.76 40,358.76 44,354.76 C52,354.76 60,362.76 60,370.76 L60,374.76 C60,378.76 56,382.76 52,382.76 L14,382.76 C10,382.76 6,378.76 6,374.76 L6,370.76 C6,362.76 14,354.76 22,354.76 C26,358.76 29,358.76 33,358.76 " fill="#F1F1F1" style="stroke:#181818;stroke-width:1.5;"/><text fill="#000000" font-family="sans-serif" font-size="14" lengthAdjust="spacing" textLength="46" x="10" y="397.7952">Viewer</text></g><!--link UC1 to UC1x1--><g id="link_UC1_UC1x1"><path d="M301,189 C350.43,189 418.55,189 470.01,189 " fill="none" id="UC1-to-UC1x1" style="stroke:#181818;stroke-width:1.0;stroke-dasharray:7.0,7.0;"/><polygon fill="#181818" points="474.89,189,465.89,185,469.89,189,465.89,193,474.89,189" style="stroke:#181818;stroke-width:1.0;"/><text fill="#000000" font-family="sans-serif" font-size="13" lengthAdjust="spacing" textLength="60" x="376.9" y="185.5684">&#171;include&#187;</text></g><!--link UC6 to UC6x1--><g id="link_UC6_UC6x1"><path d="M336.83,402 C377.37,402 423.53,402 461.93,402 " fill="none" id="UC6-to-UC6x1" style="stroke:#181818;stroke-width:1.0;stroke-dasharray:7.0,7.0;"/><polygon fill="#181818" points="466.54,402,457.54,398,461.54,402,457.54,406,466.54,402" style="stroke:#181818;stroke-width:1.0;"/><text fill="#000000" font-family="sans-serif" font-size="13" lengthAdjust="spacing" textLength="60" x="376.9" y="398.5684">&#171;include&#187;</text></g><!--link UC6x2 to UC6--><g id="link_UC6x2_UC6"><path d="M235.2,476.02 C235.2,462.28 235.2,445.18 235.2,430.88 " fill="none" id="UC6x2-to-UC6" style="stroke:#181818;stroke-width:1.0;stroke-dasharray:7.0,7.0;"/><polygon fill="#181818" points="235.2,425.94,231.2,434.94,235.2,430.94,239.2,434.94,235.2,425.94" style="stroke:#181818;stroke-width:1.0;"/><text fill="#000000" font-family="sans-serif" font-size="13" lengthAdjust="spacing" textLength="57" x="195.2" y="455.6484">&#171;extend&#187;</text></g><!--link p to UC1--><g id="link_p_UC1"><path d="M61.84,189 C88.15,189 128.72,189 163.9,189 " fill="none" id="p-to-UC1" style="stroke:#181818;stroke-width:1.0;"/><polygon fill="#181818" points="168.49,189,159.49,185,163.49,189,159.49,193,168.49,189" style="stroke:#181818;stroke-width:1.0;"/></g><!--link p to UC2--><g id="link_p_UC2"><path d="M61.86,204.58 C73.53,210.64 87.41,217.26 100.5,222 C125.84,231.19 154.85,238.5 179.35,243.8 " fill="none" id="p-to-UC2" style="stroke:#181818;stroke-width:1.0;"/><polygon fill="#181818" points="184.15,245.03,176.1833,239.2394,179.2602,243.9863,174.5133,247.0631,184.15,245.03" style="stroke:#181818;stroke-width:1.0;"/></g><!--link p to UC3--><g id="link_p_UC3"><path d="M52.03,148.92 C63.21,128.41 79.47,104.72 100.5,90 C119.55,76.67 143.42,68.7 165.71,63.95 " fill="none" id="p-to-UC3" style="stroke:#181818;stroke-width:1.0;"/><polygon fill="#181818" points="170.33,62.81,160.7119,60.6904,165.431,63.8098,162.3116,68.5289,170.33,62.81" style="stroke:#181818;stroke-width:1.0;"/></g><!--link p to UC4--><g id="link_p_UC4"><path d="M61.88,173.47 C73.55,167.41 87.43,160.79 100.5,156 C125.75,146.75 154.62,139.25 179.06,133.76 " fill="none" id="p-to-UC4" style="stroke:#181818;stroke-width:1.0;"/><polygon fill="#181818" points="183.85,132.48,174.1966,130.5276,178.9691,133.5647,175.932,138.3371,183.85,132.48" style="stroke:#181818;stroke-width:1.0;"/></g><!--link p to UC5--><g id="link_p_UC5"><path d="M52.96,228.96 C64.22,248.75 80.28,271.46 100.5,286 C116.13,297.23 134.99,305.16 153.56,310.74 " fill="none" id="p-to-UC5" style="stroke:#181818;stroke-width:1.0;"/><polygon fill="#181818" points="158.31,312.4,150.7676,306.0666,153.5051,311.017,148.5547,313.7545,158.31,312.4" style="stroke:#181818;stroke-width:1.0;"/></g><!--link v to UC5--><g id="link_v_UC5"><path d="M61.84,355.86 C86.72,351.26 124.36,344.3 158.12,338.06 " fill="none" id="v-to-UC5" style="stroke:#181818;stroke-width:1.0;"/><polygon fill="#181818" points="162.94,336.98,153.3667,334.6667,158.0218,337.8807,154.8078,342.5359,162.94,336.98" style="stroke:#181818;stroke-width:1.0;"/></g><!--link v to UC6--><g id="link_v_UC6"><path d="M61.84,366.7 C85.6,371.57 121.01,378.82 153.56,385.48 " fill="none" id="v-to-UC6" style="stroke:#181818;stroke-width:1.0;"/><polygon fill="#181818" points="158.17,386.63,150.1676,380.8887,153.2738,385.6165,148.546,388.7227,158.17,386.63" style="stroke:#181818;stroke-width:1.0;"/></g><!--SRC=[PP7DQiCm48JlUeeXTmVg93wKO0YXXHuA9QQz2skJY3YIa6J7flJTwxyO2z-6_KOZPhUWiuVNiF9ozH3IKkwbLipTf3BSyZjuxhNDV5CG-8ESlXDZ_GnV1M_8WZkOSV8ZwJ5CAiOCps_yGZWOWry6b8voxWYhp7FhSTAb4glE-trycUCtvTiCquUxfw4EB0SXaENQqeZZEVpKGfwRW6_2V15ylft3hW7UfPBkIg5jjx1zgCXOVR7aNE1CWh94A6H5A8tWdfw5ah3GYTe5TdUOPzfvPXspza6x2QpNwR0Hl6A_boelIa5fEk1anCa2OqZ1W7j8jISbMlRNNWjHrETEAfxKPbBRIUrOjL39Fm00]--></g></svg>